<svg width="205" height="231" viewBox="0 0 205 231" fill="none" xmlns="http://www.w3.org/2000/svg">
<path d="M174.1 0.299988H30.9C13.8344 0.299988 0 14.1344 0 31.2V199.8C0 216.866 13.8344 230.7 30.9 230.7H174.1C191.166 230.7 205 216.866 205 199.8V31.2C205 14.1344 191.166 0.299988 174.1 0.299988Z" fill="#00BDDE"/>
<mask id="mask0_2012_30" style="mask-type:luminance" maskUnits="userSpaceOnUse" x="20" y="53" width="165" height="125">
<path d="M184.8 53.5H20.1V177.6H184.8V53.5Z" fill="white"/>
</mask>
<g mask="url(#mask0_2012_30)">
<path d="M34.8 142.6H31.3V141.1C30.2 142.3 28.7 142.9 26.9 142.9C23.1 142.9 20.1 139.6 20.1 135.5C20.1 131.4 23.1 128 27.4 128C31.7 128 34.7 131.4 34.7 135.5V142.6H34.8ZM27.5 131.4C25.5 131.4 23.8 133.1 23.8 135.5C23.8 137.9 25.4 139.5 27.5 139.5C29.6 139.5 31.2 137.7 31.2 135.5C31.2 133.3 29.6 131.4 27.5 131.4Z" fill="#001E48"/>
<path d="M43.2 128C47.2 128 49.5 130.6 49.5 134.4V142.7H45.8V134.4C45.8 133.6 45.5 131.7 43.1 131.7C40.7 131.7 40.3 132.8 40.3 134.4V142.7H36.6V134.4C36.6 130.8 39.2 128 43 128" fill="#001E48"/>
<path d="M65.6 141.9C65.6 146.6 62.8 149.6 58.2 149.6C53.6 149.6 51.8 147.6 51.3 144.6H55.3C55.8 145.7 57.2 146.2 58.2 146.2C60.8 146.2 61.9 144.5 61.9 142V141.4C60.8 142.5 59.4 143 57.7 143C53.9 143 50.9 139.7 50.9 135.6C50.9 131.5 53.9 128.1 58.2 128.1C62.5 128.1 65.5 131.5 65.5 135.6V142L65.6 141.9ZM58.3 131.4C56.3 131.4 54.6 133.1 54.6 135.5C54.6 137.9 56.2 139.5 58.3 139.5C60.4 139.5 62 137.7 62 135.5C62 133.3 60.4 131.4 58.3 131.4Z" fill="#001E48"/>
<path d="M81.3 135.5C81.3 139.8 78.1 143 74.1 143C70.1 143 66.9 139.8 66.9 135.5C66.9 131.2 70.1 128 74.1 128C78.1 128 81.3 131.2 81.3 135.5ZM77.6 135.5C77.6 133 76 131.3 74.1 131.3C72.2 131.3 70.6 133 70.6 135.5C70.6 138 72.2 139.6 74.1 139.6C76 139.6 77.6 137.9 77.6 135.5Z" fill="#001E48"/>
<path d="M82.6 122H86.3V136.6C86.3 138.6 87.2 139.3 89 139.2V142.5C84.8 142.9 82.6 140.4 82.6 136.5V121.9V122Z" fill="#001E48"/>
<path d="M103.7 142.6H100.2V141.1C99.1 142.3 97.6 142.9 95.8 142.9C92 142.9 89 139.6 89 135.5C89 131.4 92 128 96.3 128C100.6 128 103.6 131.4 103.6 135.5V142.6H103.7ZM96.4 131.4C94.4 131.4 92.7 133.1 92.7 135.5C92.7 137.9 94.3 139.5 96.4 139.5C98.5 139.5 100.1 137.7 100.1 135.5C100.1 133.3 98.5 131.4 96.4 131.4Z" fill="#001E48"/>
<path d="M112.4 142.9C108.5 142.9 105.2 139.6 105.2 135.4C105.2 131.2 108.4 127.9 112.4 127.9C116.4 127.9 118.1 129.8 119.1 132.7H116.6C115.8 131.2 114.3 130.2 112.5 130.2C109.9 130.2 107.7 132.6 107.7 135.5C107.7 138.4 109.9 140.7 112.5 140.7C115.1 140.7 115.9 139.7 116.6 138.2H119.1C118.2 141.1 115.6 143 112.4 143" fill="white"/>
<path d="M134.2 142.6H131.9V140.4C130.8 142 129 143 127 143C123.1 143 119.9 139.8 119.9 135.5C119.9 131.2 123.1 128 127.1 128C131.1 128 134.3 131.3 134.3 135.5V142.6H134.2ZM127 130.1C124.3 130.1 122.2 132.5 122.2 135.4C122.2 138.3 124.4 140.7 127 140.7C129.6 140.7 131.8 138.3 131.8 135.4C131.8 132.5 129.6 130.1 127 130.1Z" fill="white"/>
<path d="M143.1 142.9C139.1 142.9 135.9 139.6 135.9 135.4V122H138.2V130.4C139.4 128.9 141.2 128 143.1 128C147.1 128 150.2 131.2 150.2 135.5C150.2 139.8 147 143 143 143M143.1 130.1C140.5 130.1 138.3 132.5 138.3 135.4C138.3 138.3 140.5 140.7 143.1 140.7C145.7 140.7 147.9 138.4 147.9 135.4C147.9 132.4 145.7 130.1 143.1 130.1Z" fill="white"/>
<path d="M151.9 122H154.2V137.3C154.2 139.8 155.8 140.5 157.5 140.4V142.6C154.1 143 151.8 141 151.8 137.4V122H151.9Z" fill="white"/>
<path d="M171.7 138.2C170.6 141.3 168.2 143 164.9 143C161.6 143 157.6 139.7 157.6 135.5C157.6 131.3 160.8 128 164.8 128C168.8 128 170.9 130.2 171.8 133.9L160.8 138.5C161.7 139.9 163.3 140.7 164.9 140.7C166.5 140.7 168.3 139.8 169.3 138.1H171.7V138.2ZM160.1 136.4L168.9 132.7C168 131.1 166.4 130.2 164.8 130.2C162.5 130.2 160 132.2 160 135.5C160 138.8 160 136.2 160 136.5" fill="white"/>
<path d="M179 143C175.5 143 173 141.1 172.6 138.1H175C175.3 139.8 176.9 140.8 179 140.8C181.1 140.8 182.6 139.7 182.6 138.5C182.6 137.3 182.2 136.8 178.7 136.3C175.2 135.8 173.1 135 173.1 132.3C173.1 129.6 174.9 128.1 178.7 128.1C182.5 128.1 184.2 129.8 184.5 132.6H182.1C181.8 131.1 180.4 130.3 178.7 130.3C177 130.3 175.5 131.2 175.5 132.3C175.5 133.4 176.3 133.7 179.1 134.1C182.3 134.6 184.9 135.2 184.9 138.5C184.9 141.8 182.5 143.2 179.1 143.2" fill="white"/>
<path d="M84.5 60.4C84.3 59.7 84.8 59.1 88 57.9C88.4 57.8 88.7 57.9 88.9 58.3C89 58.7 88.9 59.1 88.5 59.2C88.1 59.3 87.8 59.5 87.5 59.6C89.2 59.4 91.9 58.8 95.3 57.9C95.7 57.8 96 58 96.1 58.4C96.2 58.8 96 59.1 95.6 59.2C92.9 59.9 90.3 60.5 88.4 60.8C87.6 60.9 87 61 86.5 61C85.2 61 84.7 60.9 84.5 60.3M119.1 106.2C118.8 106.2 118.6 106.5 118.5 106.7C117.8 107.2 114.4 108.6 109.4 109.9C104.3 111.3 100.8 111.8 99.9 111.7C99.7 111.5 99.4 111.5 99.1 111.5C98.6 111.6 98.4 112.1 98.5 112.6C98.7 113.3 99.2 113.5 100.6 113.4C101.1 113.4 101.8 113.3 102.6 113.2C104.6 112.9 107.1 112.3 109.8 111.6C112.5 110.9 115 110.1 116.9 109.3C119.6 108.2 120.4 107.6 120.1 106.7C120 106.2 119.5 106 119 106.1M118.9 102.7C119.3 102.5 119.6 102 119.4 101.6C119.2 101.2 118.7 100.9 118.3 101.1C115.3 102.3 111.7 103.5 108 104.5C102.7 105.9 97.5 106.9 93.5 107.2C88.1 107.6 87.4 106.7 87.4 106.7C87.4 106.7 87.3999 106.5 87.6999 106.2C87.9999 105.8 87.9999 105.3 87.6999 105C87.2999 104.7 86.8 104.7 86.5 105C85.9 105.7 85.6 106.4 85.8 107.1C86 107.7 86.4 109.4 93.3 108.9C93.3 108.9 93.4 108.9 93.5 108.9C97.6 108.6 103 107.6 108.5 106.1C112.2 105.1 115.8 103.9 119 102.7M81 79.9C84.9 79.6 89.3 78.8 91.9 78.3C92.4 78.3 92.7 77.8 92.6 77.3C92.6 76.8 92.1 76.5 91.6 76.6C78.7 79.2 74.2 78.1 74 77.4C74 77.2 74.2 76.5 75.9 75.3C76.3 75 76.4 74.5 76.1 74.1C75.8 73.7 75.3 73.6 74.9 73.9C72.8 75.3 72 76.6 72.3 77.8C72.8 79.8 76.7 80.1 81 79.8M82.5 70.8C86.7 70.5 91.7 69.5 93.9 68.9C94.4 68.8 94.6 68.3 94.5 67.9C94.4 67.4 93.9 67.2 93.5 67.3C82.8 69.8 77.4 69.4 77 68.6C77 68.6 77.1 67.7 80.5 65.9C80.9 65.7 81.1 65.2 80.9 64.7C80.7 64.3 80.1999 64.1 79.6999 64.4C76.3999 66.2 75 67.7 75.4 69.1C75.9 70.8 79 71.1 82.6 70.9M87.9 103.1C93 102.7 99.7 101.4 106.6 99.6C109.8 98.7 112.9 97.8 115.7 96.8C116.1 96.6 116.6 96.5 117 96.3C117.4 96.1 117.7 95.6 117.5 95.2C117.3 94.8 116.8 94.5 116.4 94.7C116 94.9 115.5 95 115.1 95.2C112.2 96.2 109.2 97.1 106.1 98C99.3 99.9 92.7999 101.1 87.6999 101.5C81.7999 102 80.2 101.1 80.1 100.8C80.1 100.8 80.1 100.4 80.6 99.9C80.9 99.6 80.9 99 80.6 98.7C80.3 98.4 79.7 98.4 79.4 98.7C78.6 99.6 78.2 100.5 78.4 101.2C78.6 101.8 79.1 103.8 87.1 103.2C87.3 103.2 87.4999 103.2 87.6999 103.2M96.4 86.6C96.9 86.5 97.2 86 97.1 85.6C97 85.1 96.5 84.8 96.1 84.9C81.7 88 74.4 87 73.9 85.4C73.8 84.9 74.2 84.2 75.1 83.4C75.4 83.1 75.5 82.5 75.1 82.2C74.8 81.9 74.2 81.8 73.9 82.2C72.5 83.5 72 84.8 72.3 85.9C73 88.4 77.7 89 83.6 88.6C87.6 88.3 92.3 87.6 96.5 86.6M84.5 96.3C90 95.9 97.2 94.5 104.6 92.5C106.8 91.9 108.9 91.3 110.9 90.6C112.6 90 114.3 89.5 116 88.9C116.4 88.7 116.7 88.2 116.5 87.8C116.3 87.4 115.8 87.1 115.4 87.3C113.8 87.9 112.1 88.5 110.4 89C108.4 89.6 106.3 90.3 104.1 90.8C96.8 92.8 89.7 94.1 84.3 94.6C77.9 95.1 76.2 94.2 76.1 93.7C76.1 93.6 76.1 93.2 76.8 92.5C77.1 92.2 77.1 91.6 76.8 91.3C76.5 91 75.9 91 75.6 91.3C74.6 92.3 74.2 93.3 74.4 94.2C74.9 96 77.8999 96.8 83.6999 96.4C83.8999 96.4 84.2 96.4 84.4 96.4M130.2 77C129.2 77.3 128.6 78.2 128.7 79.2C128.2 79.9 125.8 81.9 118.9 84.8C117.8 85.2 117.4 86.4 117.8 87.5C118.1 88.3 119 88.8 119.8 88.8C120 88.8 120.2 88.8 120.4 88.7C126.7 86.1 133.7 82.6 132.7 78.6C132.4 77.5 131.3 76.9 130.2 77.2M124.6 96.6C123.8 97.2 122.8 97.8 121.5 98.4C120.5 98.9 120.1 100.1 120.6 101.2C121 102 121.8 102.4 122.6 102.3C122.9 102.3 123.1 102.3 123.4 102.1C124.9 101.4 126.1 100.7 127.1 100C128 99.3 128.2 98.1 127.6 97.1C126.9 96.2 125.7 96 124.7 96.6M95.4 74.5C94.3 74.8 93.6 75.9 93.9 77C94.1 78 95.1 78.6 96 78.6C96.1 78.6 96.2 78.6 96.3 78.6C97.7 78.3 99.1 77.9 100.5 77.5C107.5 75.6 113.9 73.3 118.6 71C124.6 68.1 126.9 65.7 126.3 63.2C126 62.1 124.9 61.5 123.8 61.8C122.9 62.1 122.2 63 122.3 63.9C121.3 65.4 113.7 69.7 99.5 73.6C98.1 74 96.7 74.3 95.4 74.7M95.8 67.6C96.1 68.6 97 69.2 97.9 69.1C98 69.1 98.2 69.1 98.3 69.1C103.9 67.6 109.1 65.7 112.9 63.9C116.3 62.3 120 60 119.3 57.1C119 56 117.9 55.4 116.8 55.7C115.9 55.9 115.3 56.7 115.3 57.6C114.2 58.9 108.3 62.1 97.3 65.1C96.2 65.4 95.6 66.5 95.9 67.6M130.2 85C129.2 85.3 128.6 86.1 128.7 87.1C128.2 87.7 126 89.6 119.9 92.1C118.9 92.5 118.4 93.7 118.8 94.8C119.1 95.6 120 96.1 120.8 96.1C121 96.1 121.2 96.1 121.4 96C130 92.4 133.4 89.5 132.6 86.6C132.3 85.5 131.2 84.9 130.1 85.2M126.4 70.9C126.2 71.5 124.6 73.2 119.5 75.8C114.8 78.1 108.5 80.4 101.9 82.2C101.2 82.4 100.5 82.6 99.8 82.7C98.7 83 98 84.1 98.3 85.2C98.5 86.2 99.5 86.8 100.4 86.7C100.5 86.7 100.6 86.7 100.8 86.7C101.5 86.5 102.2 86.3 102.9 86.1C110.4 84.1 117.4 81.5 122.4 78.8C128.5 75.6 131.1 72.7 130.4 69.9C130.1 68.8 129 68.2 127.9 68.5C126.9 68.8 126.2 69.8 126.4 70.9ZM99.6 59.4C99.8 59.4 99.9 59.4 100.1 59.4C101.9 58.8 103.4 58.3 104.5 57.8C105.5 57.3 107.7 56.4 107.1 54.4C106.8 53.3 105.7 52.7 104.6 53C104.1 53.1 103.7 53.4 103.4 53.8C102.9 54.1 101.5 54.7 98.8 55.6C97.7 56 97.1 57.1 97.5 58.2C97.8 59.1 98.7 59.7 99.6 59.6" fill="white"/>
</g>
<path d="M46.2 169.9C46.2 167.4 47.9 166 49.7 166C51.5 166 51.7 166.6 52.3 167.3V163.3H54V173.7H52.3V172.4C51.7 173.2 50.9 173.8 49.7 173.8C47.9 173.8 46.2 172.4 46.2 169.9ZM52.3 169.9C52.3 168.4 51.3 167.5 50.1 167.5C48.9 167.5 47.9 168.4 47.9 169.9C47.9 171.4 48.9 172.3 50.1 172.3C51.3 172.3 52.3 171.3 52.3 169.9Z" fill="#001E48"/>
<path d="M55.6 169.9C55.6 167.7 57.1 166 59.3 166C61.5 166 62.9 167.9 62.9 170C62.9 172.1 62.9 170.3 62.9 170.5H57.4C57.6 171.7 58.4 172.4 59.6 172.4C60.8 172.4 61 172.1 61.6 171.5L62.6 172.4C61.9 173.3 60.9 173.8 59.5 173.8C57.3 173.8 55.6 172.2 55.6 169.9ZM61.2 169.4C61.1 168.3 60.4 167.4 59.3 167.4C58.2 167.4 57.5 168.2 57.4 169.4H61.3H61.2Z" fill="#001E48"/>
<path d="M64.1 169.9C64.1 167.7 65.6 166 67.8 166C70 166 71.4 167.9 71.4 170C71.4 172.1 71.4 170.3 71.4 170.5H65.9C66.1 171.7 66.9 172.4 68.1 172.4C69.3 172.4 69.5 172.1 70.1 171.5L71.1 172.4C70.4 173.3 69.4 173.8 68 173.8C65.8 173.8 64.1 172.2 64.1 169.9ZM69.7 169.4C69.6 168.3 68.9 167.4 67.8 167.4C66.7 167.4 66 168.2 65.9 169.4H69.8H69.7Z" fill="#001E48"/>
<path d="M72.9 166.1H74.6V167.4C75.2 166.6 75.9 166 77.2 166C79 166 80.7 167.4 80.7 169.9C80.7 172.4 79 173.8 77.2 173.8C75.4 173.8 75.2 173.2 74.6 172.5V175.9H72.9V166.1ZM79 169.9C79 168.4 78 167.5 76.9 167.5C75.8 167.5 74.7 168.5 74.7 169.9C74.7 171.4 75.7 172.3 76.9 172.3C78.1 172.3 79 171.4 79 169.9Z" fill="#001E48"/>
<path d="M81.9 169.9C81.9 167.7 83.6 165.9 85.8 165.9C88 165.9 88.1 166.4 88.8 167.2L87.7 168.4C87.2 167.8 86.6 167.5 85.8 167.5C84.5 167.5 83.6 168.6 83.6 169.9C83.6 171.3 84.5 172.3 85.8 172.3C87.1 172.3 87.2 171.9 87.7 171.4L88.7 172.4C88 173.2 87.1 173.8 85.6 173.8C83.4 173.8 81.7 172.1 81.7 169.9H81.9Z" fill="white"/>
<path d="M89.7 169.9C89.7 167.7 91.4 165.9 93.7 165.9C96 165.9 97.7 167.6 97.7 169.8C97.7 171.9 96 173.7 93.7 173.7C91.4 173.7 89.7 172 89.7 169.8V169.9ZM95.9 169.9C95.9 168.5 94.9 167.5 93.6 167.5C92.3 167.5 91.3 168.6 91.3 169.9C91.3 171.2 92.3 172.3 93.6 172.3C94.9 172.3 95.9 171.2 95.9 169.9Z" fill="white"/>
<path d="M99.3 166.1H101V167.3C101.5 166.6 102.2 166 103.3 166C105 166 106 167.1 106 168.9V173.7H104.3V169.4C104.3 168.2 103.7 167.6 102.7 167.6C101.7 167.6 101 168.3 101 169.5V173.7H99.3V166.2V166.1Z" fill="white"/>
<path d="M107.9 166.1H109.6V167.3C110.1 166.6 110.8 166 111.9 166C113.6 166 114.6 167.1 114.6 168.9V173.7H112.9V169.4C112.9 168.2 112.3 167.6 111.3 167.6C110.3 167.6 109.6 168.3 109.6 169.5V173.7H107.9V166.2V166.1Z" fill="white"/>
<path d="M116.2 169.9C116.2 167.7 117.7 166 119.9 166C122.1 166 123.5 167.9 123.5 170C123.5 172.1 123.5 170.3 123.5 170.5H118C118.2 171.7 119 172.4 120.2 172.4C121.4 172.4 121.6 172.1 122.2 171.5L123.2 172.4C122.5 173.3 121.5 173.8 120.1 173.8C117.9 173.8 116.2 172.2 116.2 169.9ZM121.8 169.4C121.7 168.3 121 167.4 119.9 167.4C118.8 167.4 118.1 168.2 118 169.4H121.9H121.8Z" fill="white"/>
<path d="M124.7 169.9C124.7 167.7 126.4 165.9 128.6 165.9C130.8 165.9 130.9 166.4 131.6 167.2L130.5 168.4C130 167.8 129.4 167.5 128.6 167.5C127.3 167.5 126.4 168.6 126.4 169.9C126.4 171.3 127.3 172.3 128.6 172.3C129.9 172.3 130 171.9 130.5 171.4L131.5 172.4C130.8 173.2 129.9 173.8 128.4 173.8C126.2 173.8 124.5 172.1 124.5 169.9H124.7Z" fill="white"/>
<path d="M133.4 171.6V167.6H132.4V166.1H133.4V164H135.1V166.1H137.1V167.6H135.1V171.3C135.1 172 135.4 172.2 136 172.2C136.6 172.2 136.7 172.2 137.1 171.9V173.3C136.7 173.5 136.2 173.7 135.5 173.7C134.2 173.7 133.3 173.1 133.3 171.5L133.4 171.6Z" fill="white"/>
<path d="M138.8 163.4H140.6V165H138.8V163.4ZM138.8 166.1H140.5V173.6H138.8V166.1Z" fill="white"/>
<path d="M142.3 169.9C142.3 167.7 144 165.9 146.3 165.9C148.6 165.9 150.3 167.6 150.3 169.8C150.3 171.9 148.6 173.7 146.3 173.7C144 173.7 142.3 172 142.3 169.8V169.9ZM148.6 169.9C148.6 168.5 147.6 167.5 146.3 167.5C145 167.5 144 168.6 144 169.9C144 171.2 145 172.3 146.3 172.3C147.6 172.3 148.6 171.2 148.6 169.9Z" fill="white"/>
<path d="M151.9 166.1H153.6V167.3C154.1 166.6 154.8 166 155.9 166C157.6 166 158.6 167.1 158.6 168.9V173.7H156.9V169.4C156.9 168.2 156.3 167.6 155.3 167.6C154.3 167.6 153.6 168.3 153.6 169.5V173.7H151.9V166.2V166.1Z" fill="white"/>
</svg>
