<svg width="205" height="231" viewBox="0 0 205 231" fill="none" xmlns="http://www.w3.org/2000/svg">
<path d="M174.1 0.299988H30.8999C13.8343 0.299988 0 14.1344 0 31.2V199.8C0 216.866 13.8343 230.7 30.8999 230.7H174.1C191.166 230.7 205 216.866 205 199.8V31.2C205 14.1344 191.166 0.299988 174.1 0.299988Z" fill="white"/>
<path d="M77.3998 83.8C77.0998 82.8 77.7999 82 82.2999 80.3C82.7999 80.1 83.2999 80.3 83.4999 80.9C83.6999 81.4 83.4998 81.9 82.8998 82.1C82.2998 82.3 81.8998 82.5 81.3998 82.7C83.7998 82.4 87.5999 81.6 92.2999 80.3C92.7999 80.2 93.2999 80.5 93.4999 81C93.5999 81.5 93.2999 82 92.7999 82.2C88.9999 83.2 85.4998 84 82.6998 84.5C81.5998 84.7 80.6999 84.8 79.9999 84.8C78.1999 84.9 77.4998 84.6 77.1998 83.9M125.7 147.8C125.3 147.9 125 148.2 124.9 148.5C123.9 149.2 119.2 151.1 112.1 153C105 154.9 99.9999 155.7 98.7999 155.6C98.4999 155.4 98.0998 155.3 97.6998 155.4C97.0998 155.6 96.6998 156.2 96.8998 156.9C97.1998 157.8 97.8998 158.2 99.8998 158C100.6 158 101.5 157.8 102.6 157.7C105.3 157.3 108.9 156.4 112.7 155.4C116.5 154.4 120 153.3 122.6 152.3C126.4 150.8 127.5 150 127.1 148.7C126.9 148.1 126.3 147.7 125.6 147.9M125.3 142.9C125.9 142.6 126.2 142 126 141.3C125.8 140.7 125.1 140.4 124.4 140.6C120.2 142.3 115.2 143.9 110.1 145.3C102.7 147.3 95.4998 148.7 89.8998 149.1C82.2998 149.7 81.2999 148.3 81.2999 148.3C81.2999 148.3 81.2998 148 81.6998 147.5C82.0998 147 82.1 146.2 81.6 145.8C81.1 145.4 80.2998 145.4 79.8998 145.9C78.9998 146.9 78.6999 147.9 78.9999 148.8C79.1999 149.6 79.8998 152 89.3998 151.4C89.3998 151.4 89.5998 151.4 89.6998 151.4C95.4998 151 102.9 149.6 110.7 147.5C115.9 146.1 121 144.4 125.3 142.7M72.4999 111C77.9999 110.6 84.0999 109.5 87.7999 108.8C88.3999 108.7 88.8998 108 88.6998 107.4C88.5998 106.7 87.8999 106.3 87.2999 106.5C69.2999 110.2 62.8998 108.6 62.6998 107.6C62.6998 107.4 62.9998 106.4 65.3998 104.7C65.8998 104.3 66.0998 103.6 65.6998 103C65.2998 102.5 64.5999 102.3 63.9999 102.7C61.0999 104.7 59.8998 106.5 60.3998 108.2C61.1998 111 66.5 111.5 72.6 111.1M74.6 98.4C80.5 98 87.3999 96.5 90.4999 95.8C91.0999 95.7 91.4998 95 91.3998 94.4C91.1998 93.8 90.5999 93.4 89.9999 93.5C74.9999 97 67.5998 96.4 66.8998 95.3C66.8998 95.3 67.0999 94 71.7999 91.5C72.3999 91.2 72.5999 90.5 72.2999 89.9C71.9999 89.3 71.2998 89.1 70.6998 89.4C65.9998 91.9 64.1 94 64.6 95.9C65.2 98.3 69.6 98.7 74.6 98.4ZM82.1 143.4C89.3 142.8 98.5998 141.1 108.2 138.5C112.6 137.3 116.9 136 121 134.6C121.6 134.4 122.2 134.2 122.8 133.9C123.4 133.7 123.7 133 123.5 132.4C123.3 131.8 122.6 131.5 122 131.7C121.4 131.9 120.8 132.1 120.2 132.3C116.2 133.7 112 135 107.6 136.2C98.1 138.8 88.9998 140.5 81.8998 141.1C73.6998 141.8 71.4998 140.5 71.3998 140.1C71.3998 140 71.3998 139.5 72.1998 138.8C72.6998 138.3 72.5998 137.6 72.1998 137.1C71.6998 136.6 70.9999 136.7 70.4999 137.1C69.2999 138.4 68.8998 139.6 69.1998 140.7C69.3998 141.6 70.1998 144.3 81.3998 143.6C81.6998 143.6 81.9999 143.6 82.2999 143.6M94.1 120.4C94.7 120.3 95.1999 119.6 94.9999 119C94.8999 118.4 94.2 117.9 93.6 118.1C73.5 122.5 63.2 121.1 62.6 118.8C62.4 118.2 62.9998 117.1 64.1998 116C64.6998 115.5 64.6998 114.8 64.1998 114.3C63.6998 113.8 62.9999 113.8 62.4999 114.3C60.5999 116.2 59.7998 117.9 60.1998 119.5C61.0998 123 67.6999 123.8 75.9999 123.3C81.5999 122.9 88.0999 121.9 93.9999 120.6M77.3998 134C85.0998 133.4 95.0999 131.5 105.5 128.7C108.5 127.9 111.5 127 114.3 126.1C116.7 125.3 119.1 124.5 121.4 123.7C122 123.5 122.3 122.8 122.1 122.2C121.9 121.6 121.2 121.3 120.6 121.5C118.4 122.3 116 123.1 113.6 123.9C110.8 124.8 107.8 125.7 104.9 126.5C94.5998 129.3 84.7998 131.2 77.1998 131.8C68.1998 132.5 65.8998 131.2 65.6998 130.6C65.6998 130.4 65.7998 129.8 66.6998 128.9C67.1998 128.4 67.1998 127.7 66.6998 127.2C66.1998 126.7 65.4999 126.7 64.9999 127.2C63.5999 128.6 62.9998 130 63.3998 131.2C64.0998 133.8 68.3998 134.8 76.3998 134.2C76.6998 134.2 76.9998 134.2 77.3998 134.2M141.2 107C139.8 107.4 139 108.6 139.1 110C138.5 111 135.1 113.8 125.4 117.8C123.9 118.4 123.2 120.1 123.8 121.5C124.3 122.7 125.5 123.3 126.6 123.3C126.9 123.3 127.2 123.3 127.5 123.1C136.3 119.5 146.1 114.6 144.6 109C144.2 107.5 142.6 106.6 141.1 107M133.4 134.3C132.3 135.1 130.9 135.9 129.1 136.8C127.7 137.5 127.1 139.2 127.8 140.6C128.3 141.7 129.4 142.3 130.6 142.2C131 142.2 131.3 142.1 131.7 141.9C133.8 140.9 135.5 139.9 136.8 138.9C138.1 138 138.4 136.2 137.5 134.9C136.6 133.6 134.8 133.3 133.5 134.2M92.6 103.6C91.1 104 90.0999 105.5 90.4999 107.1C90.7999 108.5 92.0999 109.4 93.4999 109.3C93.6999 109.3 93.7999 109.3 93.9999 109.3C95.8999 108.8 97.8998 108.3 99.8998 107.8C109.6 105.2 118.6 102 125.1 98.8C133.5 94.8 136.8 91.4 135.8 87.9C135.4 86.4 133.8 85.5 132.3 85.9C131 86.3 130.1 87.5 130.2 88.8C128.7 90.9 118.2 97 98.3998 102.3C96.4998 102.8 94.5 103.3 92.6 103.8M93.1998 93.9C93.5998 95.2 94.7998 96.1 96.1998 96C96.3998 96 96.5999 96 96.7999 96C104.6 93.9 111.9 91.3 117.2 88.7C121.9 86.4 127.2 83.3 126.1 79.3C125.7 77.8 124.1 76.9 122.6 77.3C121.3 77.6 120.5 78.8 120.5 80C119 81.8 110.7 86.3 95.3998 90.5C93.8998 90.9 92.9998 92.5 93.3998 94M141.2 118.1C139.9 118.5 139 119.7 139.1 121C138.4 121.9 135.4 124.4 126.9 128C125.4 128.6 124.8 130.3 125.4 131.7C125.9 132.9 127 133.5 128.2 133.5C128.5 133.5 128.8 133.5 129.1 133.3C141.1 128.3 145.9 124.3 144.8 120.1C144.4 118.6 142.8 117.7 141.3 118.1M135.9 98.5C135.6 99.3 133.4 101.8 126.2 105.3C119.6 108.6 110.9 111.7 101.6 114.3C100.6 114.6 99.6998 114.8 98.6998 115.1C97.1998 115.5 96.2 117 96.6 118.6C96.9 120 98.2 120.9 99.6 120.8C99.8 120.8 99.9 120.8 100.1 120.8C101.1 120.5 102.1 120.3 103.1 120C113.6 117.1 123.3 113.5 130.3 109.8C138.8 105.3 142.5 101.2 141.4 97.4C141 95.9 139.4 95 137.9 95.4C136.4 95.8 135.6 97.3 135.8 98.7M98.4999 82.4C98.6999 82.4 98.9998 82.4 99.1998 82.3C101.7 81.5 103.8 80.7 105.4 80C106.9 79.4 109.9 78 109.1 75.2C108.7 73.7 107.1 72.8 105.6 73.2C104.9 73.4 104.4 73.8 104 74.3C103.3 74.7 101.4 75.6 97.4999 76.8C95.9999 77.3 95.1998 78.9 95.6998 80.4C96.0998 81.7 97.3 82.5 98.6 82.4" fill="#00BDDE"/>
</svg>
