<svg width="549" height="323" viewBox="0 0 549 323" fill="none" xmlns="http://www.w3.org/2000/svg">
<path d="M48.8 299.542H37.3V294.542C33.7 298.542 28.5 300.542 22.8 300.542C10.2 300.542 0 289.442 0 275.742C0 262.042 10.1 250.742 24.5 250.742C38.9 250.742 48.9 262.042 48.9 275.742V299.442L48.8 299.542ZM24.4 262.242C17.6 262.242 12.2 268.042 12.2 275.942C12.2 283.842 17.6 289.342 24.4 289.342C31.2 289.342 36.6 283.342 36.6 275.942C36.6 268.542 31.2 262.242 24.4 262.242Z" fill="white"/>
<path d="M76.8 250.742C90.1 250.742 97.9 259.542 97.9 271.942V299.442H85.7V271.642C85.7 268.942 84.8 262.542 76.7 262.542C68.6 262.542 67.5 266.242 67.5 271.642V299.442H55.3V271.942C55.3 259.842 63.8 250.742 76.7 250.742" fill="white"/>
<path d="M151.4 297.142C151.4 312.942 142 322.842 126.7 322.842C111.4 322.842 105.4 316.242 103.6 306.242H116.9C118.5 310.042 123.4 311.542 126.7 311.542C135.3 311.542 139.2 305.942 139.2 297.442V295.342C135.6 298.842 130.7 300.742 125.4 300.742C112.8 300.742 102.6 289.642 102.6 275.942C102.6 262.242 112.7 250.942 127.1 250.942C141.5 250.942 151.5 262.242 151.5 275.942V297.242L151.4 297.142ZM127 262.242C120.3 262.242 114.8 268.042 114.8 275.942C114.8 283.842 120.2 289.342 127 289.342C133.8 289.342 139.2 283.342 139.2 275.942C139.2 268.542 133.8 262.242 127 262.242Z" fill="white"/>
<path d="M203.7 275.842C203.7 290.042 192.9 300.642 179.7 300.642C166.5 300.642 155.8 290.042 155.8 275.842C155.8 261.642 166.5 250.842 179.7 250.842C192.9 250.842 203.7 261.642 203.7 275.842ZM191.4 275.842C191.4 267.642 186.1 261.842 179.7 261.842C173.3 261.842 168 267.542 168 275.842C168 284.142 173.3 289.442 179.7 289.442C186.1 289.442 191.4 283.942 191.4 275.842Z" fill="white"/>
<path d="M208 230.842H220.3V279.642C220.3 286.442 223.3 288.742 229.4 288.442V299.542C215.4 301.042 208.1 292.742 208.1 279.642V230.842H208Z" fill="white"/>
<path d="M278.5 299.542H267V294.542C263.4 298.542 258.2 300.542 252.5 300.542C239.9 300.542 229.7 289.442 229.7 275.742C229.7 262.042 239.8 250.742 254.2 250.742C268.6 250.742 278.6 262.042 278.6 275.742V299.442L278.5 299.542ZM254.1 262.242C247.4 262.242 241.9 268.042 241.9 275.942C241.9 283.842 247.3 289.342 254.1 289.342C260.9 289.342 266.3 283.342 266.3 275.942C266.3 268.542 260.9 262.242 254.1 262.242Z" fill="white"/>
<path d="M307.4 300.642C294.3 300.642 283.6 289.542 283.6 275.842C283.6 262.142 294.3 250.842 307.4 250.842C320.5 250.842 326.3 257.142 329.6 266.742H321.2C318.5 261.542 313.6 258.342 307.4 258.342C298.6 258.342 291.4 266.242 291.4 275.942C291.4 285.642 298.6 293.242 307.4 293.242C316.2 293.242 318.6 290.042 321.2 284.842H329.6C326.5 294.442 318.1 300.742 307.4 300.742" fill="#00BDDE"/>
<path d="M380 299.542H372.4V292.142C368.7 297.342 362.7 300.742 356 300.742C342.9 300.742 332.3 290.042 332.3 275.742C332.3 261.442 343 250.742 356.2 250.742C369.4 250.742 380 261.742 380 275.742V299.442V299.542ZM356.2 257.942C347.3 257.942 340.1 265.742 340.1 275.742C340.1 285.742 347.3 293.342 356.2 293.342C365.1 293.342 372.3 285.542 372.3 275.742C372.3 265.942 364.9 257.942 356.2 257.942Z" fill="#00BDDE"/>
<path d="M409.6 300.642C396.1 300.642 385.7 289.742 385.7 275.642V230.842H393.3V258.842C397.2 253.942 403.2 250.842 409.7 250.842C422.9 250.842 433.4 261.442 433.4 275.742C433.4 290.042 422.7 300.742 409.6 300.742M409.6 257.942C400.8 257.942 393.5 265.742 393.5 275.542C393.5 285.342 400.9 293.342 409.6 293.342C418.3 293.342 425.6 285.542 425.6 275.542C425.6 265.542 418.4 257.942 409.6 257.942Z" fill="#00BDDE"/>
<path d="M438.9 230.842H446.6V281.942C446.6 290.342 451.8 292.442 457.7 292.242V299.642C446.5 300.942 438.9 294.342 438.9 282.242V230.942V230.842Z" fill="#00BDDE"/>
<path d="M505.2 284.742C501.5 294.942 493.6 300.642 482.6 300.642C471.6 300.642 458.2 289.742 458.2 275.742C458.2 261.742 468.9 250.742 482.1 250.742C495.3 250.742 502.5 257.942 505.3 270.342L468.8 285.742C471.8 290.542 477.1 293.242 482.6 293.242C488.1 293.242 494.1 290.242 497.1 284.742H505.2ZM466.3 278.942L495.7 266.542C492.7 261.342 487.5 258.142 482.1 258.142C474.5 258.142 466 264.742 466 275.642C466 286.542 466 277.842 466.3 278.842" fill="#00BDDE"/>
<path d="M529.4 300.742C517.9 300.742 509.4 294.542 508.1 284.542H516.1C517.1 290.042 522.6 293.442 529.4 293.442C536.2 293.442 541.3 289.842 541.3 285.642C541.3 281.442 540 279.842 528.4 278.242C516.9 276.542 509.8 273.842 509.8 264.842C509.8 255.842 515.7 250.742 528.5 250.742C541.3 250.742 546.9 256.242 547.9 265.642H540C538.9 260.542 534.4 257.942 528.5 257.942C522.6 257.942 517.7 260.942 517.7 264.642C517.7 268.342 520.4 269.242 529.7 270.742C540.2 272.442 548.9 274.442 548.9 285.242C548.9 296.042 540.8 300.742 529.4 300.742Z" fill="#00BDDE"/>
<path d="M214.5 25.5417C213.9 23.1417 215.5 21.2417 226.2 17.2417C227.4 16.8417 228.7 17.3417 229.1 18.5417C229.6 19.7417 229 21.0417 227.8 21.4417C226.5 21.9417 225.3 22.3417 224.3 22.7417C230 21.9417 239 20.1417 250.3 17.0417C251.5 16.7417 252.8 17.4417 253.1 18.6417C253.4 19.8417 252.7 21.1417 251.5 21.4417C242.5 23.9417 234 25.8417 227.4 26.8417C224.8 27.2417 222.7 27.5417 221 27.6417C216.7 27.9417 214.9 27.2417 214.4 25.3417M329.9 178.242C329 178.442 328.3 179.142 328 180.042C325.7 181.742 314.4 186.242 297.6 190.842C280.7 195.442 268.8 197.242 265.9 196.942C265.2 196.442 264.3 196.142 263.4 196.442C261.9 196.842 261 198.442 261.4 199.942C262 202.142 263.8 202.942 268.5 202.642C270.2 202.542 272.4 202.242 275 201.842C281.6 200.742 290.1 198.842 299.1 196.442C308.1 194.042 316.4 191.342 322.7 188.942C331.8 185.442 334.3 183.442 333.5 180.442C333.1 178.942 331.5 178.042 330 178.442M328.9 166.642C330.4 166.042 331.1 164.342 330.5 162.942C329.9 161.442 328.3 160.742 326.8 161.342C316.7 165.342 304.8 169.342 292.6 172.642C274.9 177.442 257.7 180.642 244.4 181.742C226.3 183.142 223.9 179.942 223.9 179.942C223.9 179.842 224.1 179.142 225 178.142C226 176.942 225.9 175.142 224.7 174.142C223.5 173.142 221.7 173.242 220.7 174.442C218.6 176.842 217.9 179.242 218.5 181.442C219 183.342 220.6 189.142 243.4 187.542C243.6 187.542 243.9 187.542 244.1 187.542C257.9 186.542 275.7 183.242 294.2 178.142C306.6 174.742 318.7 170.742 329 166.642M202.9 90.5417C216 89.6417 230.5 87.0417 239.3 85.2417C240.8 84.9417 241.8 83.4417 241.5 81.9417C241.2 80.3417 239.7 79.4417 238.1 79.7417C195.1 88.5417 180 84.7417 179.3 82.3417C179.2 81.7417 180 79.4417 185.7 75.4417C187 74.5417 187.3 72.7417 186.4 71.4417C185.5 70.1417 183.7 69.8417 182.4 70.7417C175.5 75.5417 172.7 79.8417 173.8 83.8417C175.6 90.4417 188.4 91.6417 202.8 90.6417M207.9 60.3417C222 59.3417 238.5 55.8417 245.8 54.1417C247.3 53.7417 248.3 52.2417 247.9 50.7417C247.5 49.2417 246 48.2417 244.5 48.6417C208.7 56.9417 191 55.5417 189.4 53.0417C189.4 53.0417 189.8 50.0417 201.1 43.9417C202.5 43.2417 203 41.4417 202.3 40.0417C201.6 38.6417 199.8 38.1417 198.4 38.8417C187.3 44.8417 182.6 49.7417 183.9 54.3417C185.4 60.0417 195.8 61.0417 207.8 60.2417M225.8 167.942C243 166.642 265.1 162.442 288.1 156.142C298.7 153.242 308.9 150.142 318.6 146.742C320.1 146.242 321.6 145.742 323 145.142C324.5 144.642 325.2 142.942 324.7 141.442C324.2 139.942 322.5 139.242 321 139.742C319.6 140.242 318.2 140.742 316.7 141.242C307.2 144.542 297.1 147.742 286.6 150.542C263.9 156.742 242.2 160.842 225.4 162.142C205.8 163.742 200.6 160.842 200.2 159.642C200.2 159.342 200.4 158.242 202 156.542C203.1 155.442 203 153.642 201.9 152.542C200.7 151.442 198.9 151.542 197.9 152.642C195.1 155.642 194 158.542 194.7 161.142C195.3 163.342 197 169.742 223.8 167.942C224.5 167.942 225.1 167.942 225.8 167.742M254.2 112.842C255.7 112.442 256.7 110.942 256.4 109.442C256.1 107.942 254.5 106.942 253 107.242C205.1 117.642 180.6 114.342 179.1 108.842C178.7 107.342 180.1 104.842 183 102.142C184.1 101.042 184.2 99.2417 183 98.1417C181.9 97.0417 180.1 96.9417 179 98.1417C174.4 102.642 172.5 106.742 173.6 110.542C175.9 118.842 191.6 120.842 211.2 119.542C224.7 118.642 240 116.142 254.2 113.042M214.6 145.342C233.1 143.842 256.9 139.342 281.7 132.642C288.9 130.642 296 128.642 302.8 126.442C308.6 124.642 314.3 122.642 319.6 120.742C321.1 120.242 321.8 118.542 321.3 117.042C320.8 115.542 319.1 114.842 317.6 115.342C312.3 117.242 306.7 119.142 301 121.042C294.3 123.142 287.3 125.242 280.2 127.142C255.7 133.742 232.2 138.242 214.1 139.742C192.7 141.442 187.1 138.242 186.7 136.942C186.6 136.442 187 135.142 189.1 132.942C190.2 131.842 190.2 130.042 189.1 128.942C188 127.842 186.2 127.842 185.1 128.942C181.7 132.342 180.4 135.542 181.2 138.442C182.9 144.542 193 146.942 212.2 145.642C213 145.642 213.7 145.542 214.5 145.442M366.7 80.8417C363.5 81.7417 361.4 84.7417 361.7 88.0417C360.2 90.3417 352.2 97.1417 329.1 106.642C325.6 108.042 324 112.042 325.4 115.542C326.5 118.342 329.3 119.942 332.2 119.742C332.9 119.742 333.7 119.542 334.4 119.242C355.3 110.642 378.8 98.9417 375.2 85.6417C374.2 81.9417 370.5 79.8417 366.8 80.8417M348 146.142C345.4 147.942 341.9 150.042 337.7 152.142C334.3 153.842 332.9 157.942 334.6 161.342C335.9 163.942 338.5 165.342 341.2 165.142C342.1 165.142 342.9 164.842 343.8 164.442C348.7 162.042 352.9 159.642 356 157.342C359.1 155.142 359.8 150.842 357.6 147.842C355.4 144.742 351.1 144.042 348.1 146.242M250.7 72.7417C247 73.6417 244.8 77.3417 245.6 81.0417C246.4 84.3417 249.4 86.5417 252.7 86.2417C253.1 86.2417 253.5 86.2417 253.8 86.0417C258.5 84.9417 263.2 83.7417 268 82.4417C291.2 76.1417 312.6 68.4417 328.2 60.9417C348.1 51.2417 356 43.2417 353.7 34.8417C352.7 31.2417 348.9 29.0417 345.3 30.0417C342.1 30.9417 340.1 33.8417 340.3 37.0417C336.8 42.1417 311.5 56.4417 264.4 69.3417C259.8 70.5417 255.2 71.7417 250.7 72.8417M252.1 49.7417C253 52.9417 256 54.9417 259.2 54.7417C259.6 54.7417 260.1 54.6417 260.5 54.5417C279.2 49.4417 296.4 43.2417 309.1 37.1417C320.3 31.7417 332.9 24.2417 330.3 14.6417C329.3 11.0417 325.6 8.84174 321.9 9.84174C318.9 10.6417 316.9 13.3417 316.9 16.3417C313.3 20.5417 293.5 31.4417 256.9 41.3417C253.3 42.3417 251.1 46.1417 252.1 49.7417ZM366.7 107.442C363.5 108.342 361.5 111.242 361.6 114.442C360 116.542 352.7 122.642 332.4 131.042C328.9 132.542 327.3 136.442 328.7 139.942C329.8 142.742 332.6 144.342 335.5 144.142C336.2 144.142 337 143.942 337.7 143.642C366.3 131.742 377.8 122.042 375.1 112.242C374.1 108.542 370.3 106.442 366.7 107.442ZM354.2 60.7417C353.5 62.6417 348.3 68.5417 331.2 77.0417C315.6 84.8417 294.7 92.3417 272.4 98.4417C270.1 99.0417 267.8 99.6417 265.5 100.242C261.8 101.142 259.6 104.842 260.5 108.542C261.3 111.842 264.4 113.942 267.6 113.642C268 113.642 268.4 113.642 268.8 113.442C271.2 112.842 273.5 112.242 275.9 111.542C301 104.742 324.1 96.1417 340.9 87.2417C361.3 76.5417 370 66.8417 367.4 57.5417C366.4 53.9417 362.6 51.7417 359 52.7417C355.5 53.7417 353.4 57.1417 354.1 60.6417M264.7 22.2417C265.2 22.2417 265.8 22.1417 266.3 21.9417C272.3 20.0417 277.4 18.1417 281 16.5417C284.5 15.0417 291.7 11.7417 289.8 5.04174C288.8 1.44174 285.1 -0.758262 281.4 0.241738C279.8 0.741738 278.4 1.74174 277.6 2.94174C275.9 3.84174 271.3 5.94174 262.1 8.84174C258.5 10.0417 256.5 13.8417 257.7 17.4417C258.7 20.5417 261.6 22.4417 264.7 22.1417" fill="#00BDDE"/>
</svg>
