<svg width="417" height="417" viewBox="0 0 417 417" fill="none" xmlns="http://www.w3.org/2000/svg">
<path d="M400.6 0.0999756C401.5 0.599976 402.5 1.1 403.4 1.5C411.2 4.8 416 10.7 416.2 19.2C416.5 37.8 416.5 56.3 416.2 74.9C416.1 85.1 408.7 92.6 398.5 94C397.3 94.2 396 94.4 394.9 94.2C382.8 92.4 372.8 96.7 362.9 103.4C348.1 113.6 332.5 122.7 317.2 132.2C316.2 132.8 315.1 133.4 313.3 134.4C315.6 120.7 317.8 107.7 320.1 94.2C315 94.2 310.2 94.2 305.3 94.2C289.9 94.2 282 86.3 281.9 71C281.9 55.8 282.3 40.6 281.8 25.5C281.4 13 285.9 4.29995 298 0.199951C332.2 0.199951 366.3 0.199951 400.5 0.199951L400.6 0.0999756ZM331.5 107.3C340.7 101.5 349.5 96.9 357.3 91C368.3 82.6 380.1 79 393.9 80.5C400.6 81.2 402.9 78.5 402.9 71.7C402.9 55.3 402.9 38.9 402.9 22.5C402.9 15.7 400.7 13.6 393.9 13.6C369.2 13.6 344.6 13.6 319.9 13.6C314.1 13.6 308.2 13.6 302.4 13.6C298 13.7 295.5 16.1 295.5 20.4C295.5 38.1 295.5 55.9 295.5 73.6C295.5 78.1 298.1 80.5 302.7 80.5C312.3 80.5 321.9 80.5 331.6 80.5C332.9 80.5 334.2 80.5 335.9 80.5C334.4 89.3 333 97.7 331.4 107.2L331.5 107.3Z" fill="#00BDDE"/>
<path d="M175.7 276.3C174.1 274.2 173.4 272.5 172.1 271.6C157 261.6 147.1 247.8 142.7 230.2C142.4 229 141.2 227.7 140.1 227.3C126.9 222.1 120.9 213.5 120.9 199.4C120.9 184.8 120.9 170.1 120.9 155.5C121 112.4 150 77.1999 192.1 68.6999C241.5 58.7999 291.2 95.7 294.9 145.8C296.2 163.3 295.5 181 295.6 198.6C295.6 210.3 295.6 221.9 295.6 233.6C295.6 246.7 287 255.6 274 255.1C266.1 254.8 259.8 255.9 254.8 262.9C252.2 266.5 247.7 268.6 244.2 271.6C243 272.6 242.3 274.2 240.9 276.2C252.7 278.3 263.2 280.2 273.6 282.2C279.6 283.3 285.7 284.1 291.5 285.8C304.7 289.6 315.2 297.6 320.3 310.2C327.1 327.1 332.5 344.6 338.6 362.4H194.2C198.5 366 201.8 368.8 205.2 371.7C203.5 373.5 202.9 374.2 202.3 374.8C191.6 384.6 181 394.4 170.2 404.2C152.2 420.5 124.9 420.8 107.4 404C86.0001 383.5 65.3001 362.2 44.3001 341.2C34.9001 331.8 25.5001 322.4 16.1001 313C-3.99991 292.8 -4.09986 264.3 15.9001 244.2C25.4001 234.6 35.0001 225 44.7001 215.4C45.5001 216.1 46.1001 216.6 46.7001 217.2C62.5001 233 78.3001 248.8 94.4001 264.9C93.6001 265.9 92.8001 266.8 92.0001 267.6C84.5001 275.1 77.0001 282.5 69.6001 290C64.8001 294.8 64.9001 297.9 69.6001 302.7C76.5001 309.6 83.4001 316.5 90.7001 323.8C91.9001 320.4 92.8001 317.5 94.0001 314.7C100.5 298 112.6 287.8 130.3 284.4C144.9 281.6 159.6 279 175.8 276L175.7 276.3ZM154.7 323.1C162.7 331.1 170.4 338.7 177.9 346.5C179.8 348.5 181.8 349.3 184.6 349.3C228.1 349.3 271.6 349.3 315.1 349.3C316.4 349.3 317.7 349.3 319.6 349.3C316.3 339.3 313.3 329.9 310.1 320.7C305.6 307.9 296.4 300.3 283 297.8C271.7 295.7 260.2 294.3 249.1 291.4C240.5 289.2 234.5 290.7 228.8 297.7C222.6 305.1 215.2 311.6 208.2 318.5C207 317.3 206 316.4 205 315.5C197 307.6 189.2 299.5 181.1 291.7C180 290.6 177.7 289.8 176.2 290.1C161.5 292.6 146.9 295.2 132.3 298C119.6 300.5 110.9 308 106.4 320.1C104.9 324 103.8 328.1 102.3 332C101.6 334 101.8 335.4 103.4 337C107.2 340.5 110.7 344.2 114.4 347.9C119.2 352.7 122.1 352.8 127.2 348.1C136.2 339.9 145.3 331.8 154.7 323.2V323.1ZM281.2 177.8C281.2 166.5 282.4 155.1 281 144.1C276.4 109.1 247.2 82.7 212.1 80.8C177.2 78.9 145.3 101.9 136.9 136C134.4 146.5 135 157.7 134.3 168.6C134.1 171.6 134.3 174.7 134.3 178.1C137 177 138.9 176.2 141 175.3V167.8C168.6 169.5 190.5 158.8 208 138C217.1 147.8 226.3 156.2 238.1 161.4C249.9 166.7 262.2 168.2 275.2 167.9V175.4C277.5 176.3 279.5 177.1 281.1 177.7L281.2 177.8ZM208.2 157.4C193.4 170.9 176.6 178.9 157 180.9C154.6 181.1 154.3 182.5 154.3 184.5C154.3 194.9 154 205.4 154.4 215.8C155.2 237.2 165 253.5 184.3 263.1C203.1 272.5 221.5 270.6 239 259C240.2 258.2 241.4 257.1 242.5 256.2C242.4 255.9 242.2 255.7 242.1 255.4H208.4V242C210.2 242 211.7 242 213.1 242C225.8 242 238.6 242 251.3 242C253.8 242 255.4 241.3 256.2 238.9C257.6 234.9 260 231.1 260.3 227.1C261.2 212.5 261.4 197.9 261.6 183.3C261.6 182.5 259.5 181.3 258.2 181C253.1 179.8 247.8 179.1 242.8 177.7C229.7 174 218.3 167 208.1 157.6L208.2 157.4ZM165.4 390.2C155.1 379.7 145.1 369.5 135.1 359.3C124.2 367.5 114.5 366.9 104.8 357.2C89.9001 342.4 75.1001 327.5 60.3001 312.7C50.7001 303.1 50.0001 293.7 58.1001 282.7C58.2001 282.5 58.1001 282.2 58.2001 281.4C53.3001 276.6 48.2001 271.6 43.1001 266.5C38.1001 261.5 33.1001 256.4 28.1001 251.3C10.3001 267.5 9.80014 288 26.4001 304.6C55.6001 333.8 84.8001 363.1 114.1 392.2C129.5 407.6 151.8 406.5 165.5 390.1L165.4 390.2ZM176.9 380.1C179.5 377.7 182.2 375.1 184.5 372.9C174.1 362.5 164.1 352.4 153.9 342.1C151.3 344.4 148.6 347 146 349.3C156.4 359.6 166.5 369.7 176.9 380.1ZM75.0001 265.6C64.7001 255.3 54.6001 245.2 44.7001 235.2C42.5001 237.2 40.0001 239.5 38.0001 241.3C48.4001 251.7 58.5001 261.8 68.7001 272C70.6001 270.1 72.8001 267.8 75.0001 265.6ZM189.5 279.6C196 286.1 202.3 292.5 208.1 298.3C214.2 292.2 220.6 285.9 227 279.5C214.6 283.1 202 283 189.4 279.7L189.5 279.6ZM270.2 241.4C281.3 243.5 283.5 238.2 281.1 225.1C278.6 226.4 275.1 227.1 274 229.1C272 232.8 271.4 237.2 270.2 241.4ZM140.8 212.8V190.5C136.2 193.1 134.4 196.9 134.4 201.6C134.4 206.3 136.3 210 140.8 212.9V212.8ZM275.5 212.9C280.8 209.2 282.6 204.7 281.8 199.2C281.2 195.4 279.2 192.5 275.5 190.3V213V212.9Z" fill="#00BDDE"/>
<path d="M263.9 28.5C262.5 33.1 261.2 37.1 259.9 41.1C202.1 25.5 149 34.1001 101.3 70.3001C69.5001 94.5001 49.1001 126.5 38.6001 166.3C45.2001 162.4 50.9001 159 56.9001 155.5C59.2001 159.4 61.4001 162.9 63.8001 166.9C50.7001 174.8 37.7001 182.6 24.5001 190.5C16.6001 177.4 8.90015 164.6 0.900146 151.2C4.60015 148.9 8.30011 146.7 12.3001 144.2C16.5001 151.1 20.5001 157.8 24.9001 165C41.0001 104.9 76.3001 61.3 132.5 36C174.9 16.9 218.8 15.2001 263.8 28.3001L263.9 28.5Z" fill="#00BDDE"/>
<path d="M373.6 151.6C369.3 158.7 365.6 164.8 361.7 171.3C357.9 169 354.2 166.9 350.2 164.5C358.1 151.3 365.9 138.4 373.8 125.2C386.9 133.1 399.8 140.8 413.1 148.8C410.8 152.7 408.5 156.4 406.2 160.3C399.7 156.4 393.6 152.8 386.9 148.8C406.1 213.8 395.3 272.8 354.5 326.8C350.8 323.8 347.6 321.2 344 318.4C381.9 268.1 392.1 213 373.6 151.6Z" fill="#00BDDE"/>
<path d="M309 39.9V27.2H389.1V39.9H309Z" fill="#00BDDE"/>
<path d="M309 67V54H362.2V67H309Z" fill="#00BDDE"/>
<path d="M389.2 67H376.3V54H389.2V67Z" fill="#00BDDE"/>
</svg>
